<svg width="16" height="16" viewBox="0 0 16 16" fill="none" xmlns="http://www.w3.org/2000/svg">
<g filter="url(#filter0_d_325_6031)">
<path d="M4.99988 5.11336V4.4667C4.99988 2.9667 6.20655 1.49336 7.70655 1.35336C8.12333 1.31242 8.54407 1.35918 8.94169 1.49066C9.33931 1.62213 9.70499 1.8354 10.0152 2.11673C10.3254 2.39806 10.5733 2.74123 10.7429 3.12414C10.9125 3.50706 11 3.92124 10.9999 4.34003V5.26003M2.53988 11.04L2.69322 12.2867C2.83988 13.5934 3.31988 14.6667 5.99988 14.6667H9.99988C12.6799 14.6667 13.1599 13.5934 13.2999 12.2867L13.7999 8.2867C13.9799 6.66003 13.5132 5.33336 10.6666 5.33336H5.33322C2.48655 5.33336 2.01988 6.66003 2.19988 8.2867" stroke="white" stroke-width="1.5" stroke-miterlimit="10" stroke-linecap="round" stroke-linejoin="round" shape-rendering="crispEdges"/>
</g>
<defs>
<filter id="filter0_d_325_6031" x="-2.58398" y="0.588989" width="21.1677" height="22.8278" filterUnits="userSpaceOnUse" color-interpolation-filters="sRGB">
<feFlood flood-opacity="0" result="BackgroundImageFix"/>
<feColorMatrix in="SourceAlpha" type="matrix" values="0 0 0 0 0 0 0 0 0 0 0 0 0 0 0 0 0 0 127 0" result="hardAlpha"/>
<feOffset dy="4"/>
<feGaussianBlur stdDeviation="2"/>
<feComposite in2="hardAlpha" operator="out"/>
<feColorMatrix type="matrix" values="0 0 0 0 0 0 0 0 0 0 0 0 0 0 0 0 0 0 0.25 0"/>
<feBlend mode="normal" in2="BackgroundImageFix" result="effect1_dropShadow_325_6031"/>
<feBlend mode="normal" in="SourceGraphic" in2="effect1_dropShadow_325_6031" result="shape"/>
</filter>
</defs>
</svg>
